#N canvas 217 506 407 318 12;
#X obj 177 70 inlet;
#X obj 233 69 inlet;
#X text 228 33 line duration, f 8;
#X obj 43 70 inlet;
#X obj 297 71 inlet;
#X obj 117 70 inlet;
#X text 300 45 halt;
#X text 40 34 bang to start, f 8;
#X obj 297 224 outlet;
#X msg 297 99 stop;
#X obj 297 190 del 10;
#X obj 99 248 outlet;
#X obj 43 102 t b b;
#X msg 43 172 \$1;
#X msg 99 208 \$2 \$3;
#X obj 99 172 pack f f f;
#X obj 43 145 f 1e-07;
#X text 118 31 start val, f 6;
#X text 180 33 end val, f 4;
#X connect 0 0 15 1;
#X connect 1 0 15 2;
#X connect 1 0 10 1;
#X connect 3 0 12 0;
#X connect 3 0 10 0;
#X connect 4 0 9 0;
#X connect 5 0 16 1;
#X connect 9 0 10 0;
#X connect 10 0 8 0;
#X connect 12 0 15 0;
#X connect 12 1 16 0;
#X connect 13 0 11 0;
#X connect 14 0 11 0;
#X connect 15 0 14 0;
#X connect 16 0 13 0;
