#N canvas 412 468 463 390 12;
#X obj 34 54 inlet;
#X obj 112 70 inlet;
#X obj 256 70 inlet;
#X text 29 18 Incoming floats, f 9;
#X text 103 46 Threshold Hi;
#X text 246 46 Threshold Lo;
#X obj 117 266 outlet;
#X obj 261 265 outlet;
#X text 109 292 Trigger Hi;
#X text 253 291 Trigger Lo;
#X obj 94 200 change;
#X obj 238 199 change;
#X obj 94 172 >;
#X obj 238 149 <;
#X obj 94 229 sel 0 1;
#X obj 238 228 sel 0 1;
#X obj 112 141 f \$1;
#X obj 256 120 f \$2;
#X msg 155 141 1e+37;
#X msg 302 120 -1e+37;
#X connect 0 0 12 0;
#X connect 0 0 13 0;
#X connect 1 0 16 0;
#X connect 2 0 17 0;
#X connect 10 0 14 0;
#X connect 11 0 15 0;
#X connect 12 0 10 0;
#X connect 13 0 11 0;
#X connect 14 0 17 0;
#X connect 14 1 18 0;
#X connect 14 1 6 0;
#X connect 15 0 16 0;
#X connect 15 1 19 0;
#X connect 15 1 7 0;
#X connect 16 0 12 1;
#X connect 17 0 13 1;
#X connect 18 0 12 1;
#X connect 19 0 13 1;
